<svg width="16" height="16" viewBox="0 0 16 16" fill="none" xmlns="http://www.w3.org/2000/svg">
<g clip-path="url(#clip0_2_2)">
<path d="M8.36086 9.58104C8.23242 8.7737 7.84709 8.13762 7.0948 7.76453C6.87462 7.65444 6.77676 7.62386 6.63609 7.56269C7.50459 7.08563 7.9633 6.25994 7.92661 5.28746C7.88379 4.24771 7.3578 3.526 6.36697 3.20184C5.77982 3.00612 5.21713 2.96942 4.20183 2.96942L0 2.96942V13.0306H4.4893H4.27523C4.9052 13.0306 5.67584 12.9878 6.14679 12.8532C6.72171 12.6942 7.25382 12.4557 7.67584 12.0153C8.33639 11.3303 8.51376 10.4924 8.36697 9.57493L8.36086 9.58104ZM2.2263 4.71254H4.62385C5.26605 4.71254 5.77982 5.23242 5.77982 5.8685C5.77982 6.50459 5.25994 7.02447 4.62385 7.02447H2.2263V4.70642V4.71254ZM5.02141 11.263H2.2263V8.55964H5.02141C5.76758 8.55964 6.37309 9.16514 6.37309 9.91132C6.37309 10.6575 5.76758 11.263 5.02141 11.263Z" fill="white"/>
<path d="M14 9.69725H15.9755C15.9878 9.53211 16 9.36697 16 9.1896C16 6.88379 14.5566 5.36086 12.3609 5.36086C10.3547 5.36086 8.72171 6.84709 8.72171 9.1896C8.72171 11.5321 10.3486 13.0183 12.3609 13.0183C14.1957 13.0183 15.4128 12.156 15.8287 10.5596H14.0734C13.8899 11.0795 13.4067 11.5015 12.5443 11.5015C11.737 11.5015 10.8746 10.9878 10.7339 9.7156V9.69725H14ZM12.3609 6.84709C13.1743 6.84709 13.7615 7.38532 13.9511 8.41284H10.7829C10.9908 7.38532 11.6147 6.84709 12.367 6.84709H12.3609Z" fill="white"/>
<path d="M14.4037 3.47707H10.3181V4.64526H14.4037V3.47707Z" fill="white"/>
</g>
<defs>
<clipPath id="clip0_2_2">
<rect width="16" height="16" fill="white"/>
</clipPath>
</defs>
</svg>
