<svg id="OBJECT" fill="white" height="512" viewBox="0 0 512 512" width="512" xmlns="http://www.w3.org/2000/svg"><path d="m457 61h-402a55.06 55.06 0 0 0 -55 55v280a55.06 55.06 0 0 0 55 55h402a55.06 55.06 0 0 0 55-55v-280a55.06 55.06 0 0 0 -55-55zm25 55v280a24.24 24.24 0 0 1 -.27 3.63l-144.22-143.63 144.22-143.63a24.24 24.24 0 0 1 .27 3.63zm-25-25a26 26 0 0 1 3.44.24l-204.44 203.59-204.44-203.59a26 26 0 0 1 3.44-.24zm-426.73 308.63a24.24 24.24 0 0 1 -.27-3.63v-280a24.24 24.24 0 0 1 .27-3.63l144.22 143.63zm24.73 21.37a26 26 0 0 1 -3.44-.24l144.19-143.59 49.67 49.46a15 15 0 0 0 21.16 0l49.67-49.46 144.19 143.59a26 26 0 0 1 -3.44.24z"/></svg>