<svg width="16" height="16" viewBox="0 0 16 16" fill="none" xmlns="http://www.w3.org/2000/svg">
<g clip-path="url(#clip0_2_20)">
<path d="M16 8.03372C16 3.59719 12.4162 0 8.00373 0C3.59123 0 0 3.59719 0 8.03372C0 11.8033 2.58329 14.9583 6.07 15.8276V10.4843H4.41997V8.03372H6.07V6.97705C6.07 4.24169 7.30191 2.97518 9.9748 2.97518C10.4825 2.97518 11.356 3.0726 11.7144 3.17752V5.40328C11.5278 5.3808 11.1993 5.3733 10.7886 5.3733C9.47457 5.3733 8.96687 5.87541 8.96687 7.1719V8.04122H11.58L11.1321 10.4918H8.96687V16.0075C12.9314 15.5279 16 12.1405 16 8.03372Z" fill="white"/>
</g>
<defs>
<clipPath id="clip0_2_20">
<rect width="16" height="16" fill="white"/>
</clipPath>
</defs>
</svg>
