<svg width="16" height="16" viewBox="0 0 16 16" fill="none" xmlns="http://www.w3.org/2000/svg">
<g clip-path="url(#clip0_2_13)">
<path d="M15.5768 12.999C15.3349 12.999 15.1535 13.2029 15.1535 13.4557C15.1535 13.7085 15.3349 13.9123 15.5768 13.9123C15.8186 13.9123 16 13.7085 16 13.4557C16 13.2029 15.8186 12.999 15.5768 12.999ZM15.5768 13.8471C15.3727 13.8471 15.214 13.6758 15.214 13.4557C15.214 13.2355 15.3727 13.0642 15.5768 13.0642C15.7808 13.0642 15.9395 13.2355 15.9395 13.4557C15.9395 13.6758 15.7808 13.8471 15.5768 13.8471ZM15.675 13.5046C15.7355 13.4883 15.7733 13.4312 15.7733 13.366C15.7733 13.2762 15.7204 13.2273 15.6297 13.2273H15.4256V13.684H15.5012V13.5127H15.5919L15.7052 13.684H15.7959L15.675 13.5046ZM15.4861 13.4475V13.3007H15.607C15.6599 13.3007 15.6901 13.3252 15.6901 13.3741C15.6901 13.423 15.6599 13.4557 15.607 13.4557H15.4861V13.4475ZM13.7402 0H1.09589C0.491261 0 0 0.530071 0 1.18247V14.8257C0 15.4781 0.491261 16.0082 1.09589 16.0082H13.7402C14.3448 16.0082 14.8361 15.4781 14.8361 14.8257V1.18247C14.8361 0.530071 14.3448 0 13.7402 0ZM4.42135 13.6351H2.19178V5.99388H4.42135V13.6351ZM3.30279 4.93374C2.59235 4.93374 2.01795 4.35474 2.01795 3.55556C2.01795 2.75637 2.59235 2.17737 3.30279 2.17737C4.01323 2.17737 4.58762 2.76453 4.58762 3.55556C4.58762 4.34659 4.01323 4.93374 3.30279 4.93374ZM12.6443 13.6351H10.4147V9.45973C10.4147 8.22834 9.93103 7.84506 9.30373 7.84506C8.63864 7.84506 7.99622 8.38328 7.99622 9.4842V13.6269H5.76665V5.99388H7.91308V7.05403H7.94332C8.16249 6.58104 8.91072 5.78186 10.0595 5.78186C11.3066 5.78186 12.6519 6.58104 12.6519 8.91335V13.6432L12.6443 13.6351Z" fill="white"/>
</g>
<defs>
<clipPath id="clip0_2_13">
<rect width="16" height="16" fill="white"/>
</clipPath>
</defs>
</svg>
