<svg width="16" height="16" viewBox="0 0 16 16" fill="none" xmlns="http://www.w3.org/2000/svg">
<g clip-path="url(#clip0_2_28)">
<path d="M4.68909 0.0570846C3.84098 0.0978593 3.25382 0.236493 2.74822 0.432212C2.21814 0.636086 1.77778 0.913354 1.32926 1.35372C0.888889 1.80224 0.611621 2.24261 0.407747 2.77268C0.212029 3.27829 0.0733945 3.86544 0.0407747 4.71356C0 5.56983 0 5.84709 0 8.01631C0 10.1855 0.0163099 10.4628 0.0570846 11.3191C0.0978593 12.1672 0.236493 12.7543 0.432212 13.2599C0.636086 13.79 0.913354 14.2304 1.35372 14.6789C1.80224 15.1193 2.24261 15.3965 2.77268 15.6004C3.27829 15.7961 3.86544 15.9348 4.71356 15.9674C5.56983 16.0082 5.83894 16.0163 8.00815 16.0082C10.1855 16.0082 10.4546 15.9918 11.3109 15.9511C12.159 15.9103 12.7462 15.7717 13.2518 15.5759C13.7819 15.3721 14.2222 15.0948 14.6707 14.6544C15.1111 14.2059 15.3884 13.7655 15.5923 13.2355C15.788 12.7299 15.9266 12.1427 15.9592 11.2946C16 10.4383 16.0082 10.1692 16 7.99184C16 5.82263 15.9837 5.54536 15.9429 4.69725C15.9021 3.84913 15.7635 3.26198 15.5678 2.75637C15.3639 2.2263 15.0866 1.78593 14.6463 1.33741C14.1978 0.897044 13.7574 0.619776 13.2273 0.415902C12.7217 0.220183 12.1346 0.0815494 11.2864 0.0489297C10.4302 0 10.1611 0 7.98369 0C5.81447 0 5.53721 0.0163099 4.68909 0.0570846ZM4.7788 14.524C3.99592 14.4913 3.57187 14.3609 3.2946 14.2548C2.91947 14.1081 2.65036 13.9368 2.37309 13.6595C2.09582 13.3823 1.91641 13.1131 1.76962 12.738C1.66361 12.4526 1.52497 12.0285 1.49235 11.2538C1.45158 10.4139 1.44342 10.1611 1.44342 8.02446C1.44342 5.88787 1.44343 5.63507 1.4842 4.79511C1.51682 4.01223 1.6473 3.58818 1.75331 3.31091C1.9001 2.93578 2.07136 2.66667 2.34862 2.3894C2.62589 2.11213 2.89501 1.93272 3.27013 1.78593C3.55556 1.67176 3.97146 1.54128 4.75433 1.50866C5.59429 1.46789 5.84709 1.45973 7.98369 1.45973C10.1203 1.45973 10.3731 1.45973 11.2212 1.50051C12.0041 1.53313 12.4281 1.66361 12.7054 1.76962C13.0805 1.91641 13.3496 2.08767 13.6269 2.36493C13.9042 2.6422 14.0836 2.91132 14.2304 3.28644C14.3445 3.56371 14.475 3.98777 14.5076 4.77064C14.5484 5.6106 14.5566 5.87156 14.5647 8C14.5647 10.1366 14.5647 10.3894 14.524 11.2294C14.4913 12.0122 14.3609 12.4363 14.2548 12.7136C14.1081 13.0887 13.9368 13.3578 13.6595 13.6351C13.3823 13.9123 13.1131 14.0917 12.738 14.2385C12.4526 14.3445 12.0367 14.4832 11.2538 14.5158C10.4139 14.5566 10.1611 14.5647 8.01631 14.5647C5.87971 14.5647 5.62691 14.5647 4.78695 14.524M11.3028 3.72681C11.3028 4.25688 11.735 4.68909 12.265 4.68094C12.7951 4.68094 13.2273 4.24873 13.2273 3.71865C13.2273 3.18858 12.7951 2.75637 12.265 2.75637C11.735 2.75637 11.3028 3.18858 11.3028 3.71865M3.88991 8.00815C3.88991 10.2752 5.74108 12.1101 8.00815 12.1101C10.2752 12.1101 12.1101 10.2671 12.1101 7.99184C12.1101 5.72477 10.2589 3.88991 7.99184 3.88991C5.72477 3.88991 3.88991 5.74108 3.88991 8.00815ZM5.33333 8.00815C5.33333 6.53211 6.52396 5.34149 7.99184 5.33333C9.46789 5.33333 10.6585 6.52396 10.6667 7.99184C10.6667 9.46789 9.47604 10.6585 8.00815 10.6667C6.53211 10.6667 5.34149 9.47604 5.33333 8.00815Z" fill="white"/>
</g>
<defs>
<clipPath id="clip0_2_28">
<rect width="16" height="16" fill="white"/>
</clipPath>
</defs>
</svg>
